<svg width="48" height="35" viewBox="0 0 48 35" fill="none" xmlns="http://www.w3.org/2000/svg">
<path d="M0.350342 17.2154C0.350342 16.7505 0.726763 16.3733 1.19245 16.3733H44.928L32.6148 1.52272C32.3183 1.16567 32.3663 0.633464 32.7259 0.337043C33.0838 0.0406217 33.6152 0.0903042 33.9116 0.448199C33.9116 0.448199 47.4897 16.6891 47.5697 16.86C47.6303 16.9897 47.6564 17.1303 47.6472 17.2676C47.664 17.4815 47.5941 17.692 47.4501 17.8629L33.9764 33.8267C33.6767 34.1821 33.1461 34.2276 32.7908 33.9286C32.4346 33.6297 32.3882 33.1 32.6872 32.7429L45.0013 18.0575H1.19245C0.727605 18.0575 0.350342 17.6811 0.350342 17.2154Z" fill="#AE53DD"/>
</svg>
