<svg width="14" height="13" viewBox="0 0 14 13" fill="none" xmlns="http://www.w3.org/2000/svg">
<g filter="url(#filter0_dd_1_124)">
<path d="M12.8753 1.31563C11.3527 -0.206567 8.87573 -0.206567 7.35353 1.31563L6.99997 1.66899L6.64662 1.31563C5.12442 -0.206774 2.64723 -0.206774 1.12503 1.31563C-0.366261 2.80693 -0.375945 5.17079 1.10258 6.81435C2.45109 8.31285 6.42822 11.5503 6.59696 11.6873C6.71152 11.7805 6.84936 11.8258 6.98637 11.8258C6.99091 11.8258 6.99544 11.8258 6.99976 11.8256C7.14152 11.8322 7.2843 11.7835 7.40257 11.6873C7.57131 11.5503 11.5489 8.31285 12.8978 6.81414C14.3761 5.17079 14.3664 2.80693 12.8753 1.31563ZM11.9789 5.98731C10.9274 7.15534 8.03737 9.56432 6.99976 10.4192C5.96216 9.56453 3.0727 7.15575 2.0215 5.98752C0.99008 4.84113 0.980396 3.20849 1.99904 2.18985C2.51929 1.66981 3.2025 1.40959 3.88572 1.40959C4.56894 1.40959 5.25216 1.6696 5.7724 2.18985L6.54957 2.96702C6.64208 3.05953 6.7587 3.11475 6.88109 3.13411C7.07971 3.17676 7.29522 3.12134 7.44975 2.96722L8.22733 2.18985C9.26803 1.14957 10.9608 1.14977 12.0009 2.18985C13.0195 3.20849 13.0099 4.84113 11.9789 5.98731Z" fill="white"/>
</g>
<defs>
<filter id="filter0_dd_1_124" x="-3.99991" y="0.173828" width="22" height="19.6523" filterUnits="userSpaceOnUse" color-interpolation-filters="sRGB">
<feFlood flood-opacity="0" result="BackgroundImageFix"/>
<feColorMatrix in="SourceAlpha" type="matrix" values="0 0 0 0 0 0 0 0 0 0 0 0 0 0 0 0 0 0 127 0" result="hardAlpha"/>
<feOffset dy="4"/>
<feGaussianBlur stdDeviation="2"/>
<feComposite in2="hardAlpha" operator="out"/>
<feColorMatrix type="matrix" values="0 0 0 0 0 0 0 0 0 0 0 0 0 0 0 0 0 0 0.25 0"/>
<feBlend mode="normal" in2="BackgroundImageFix" result="effect1_dropShadow_1_124"/>
<feColorMatrix in="SourceAlpha" type="matrix" values="0 0 0 0 0 0 0 0 0 0 0 0 0 0 0 0 0 0 127 0" result="hardAlpha"/>
<feOffset dy="4"/>
<feGaussianBlur stdDeviation="2"/>
<feComposite in2="hardAlpha" operator="out"/>
<feColorMatrix type="matrix" values="0 0 0 0 0 0 0 0 0 0 0 0 0 0 0 0 0 0 0.25 0"/>
<feBlend mode="normal" in2="effect1_dropShadow_1_124" result="effect2_dropShadow_1_124"/>
<feBlend mode="normal" in="SourceGraphic" in2="effect2_dropShadow_1_124" result="shape"/>
</filter>
</defs>
</svg>
