<svg width="14" height="14" viewBox="0 0 14 14" fill="none" xmlns="http://www.w3.org/2000/svg">
<path d="M7.95312 5.57812C7.59219 5.57812 7.3125 5.85781 7.3125 6.20312C7.3125 6.54844 7.59219 6.82812 7.95312 6.82812C8.28281 6.82812 8.5625 6.54844 8.5625 6.20312C8.5625 5.85781 8.28281 5.57812 7.95312 5.57812ZM3.57812 5.57812C3.21719 5.57812 2.9375 5.85781 2.9375 6.20312C2.9375 6.54844 3.21719 6.82812 3.57812 6.82812C3.90781 6.82812 4.1875 6.54844 4.1875 6.20312C4.1875 5.85781 3.90781 5.57812 3.57812 5.57812Z" fill="white"/>
<path d="M12.9688 4.39065C12.2172 3.3594 11.1672 2.67034 10.0156 2.3594V2.36097C9.74844 2.06409 9.44688 1.79065 9.10938 1.5469C6.55157 -0.312472 2.96094 0.254715 1.09376 2.81253C-0.410932 4.89065 -0.34687 7.68597 1.18751 9.6719L1.20001 11.7438C1.20001 11.7938 1.20782 11.8438 1.22344 11.8907C1.30626 12.1547 1.58751 12.3 1.85001 12.2172L3.82813 11.5938C4.35157 11.7797 4.89219 11.886 5.42969 11.9157L5.42188 11.9219C6.81407 12.936 8.63907 13.2407 10.3125 12.6875L12.2984 13.3344C12.3484 13.35 12.4 13.3594 12.4531 13.3594C12.7297 13.3594 12.9531 13.136 12.9531 12.8594V10.7657C14.3297 8.8969 14.3656 6.31409 12.9688 4.39065ZM4.04688 10.4844L3.85938 10.4063L2.31251 10.8907L2.29688 9.26565L2.17188 9.12503C0.850005 7.51253 0.762505 5.18909 2.00001 3.4844C3.50626 1.41878 6.39376 0.962528 8.45313 2.45315C10.5188 3.95472 10.9766 6.83753 9.48438 8.89065C8.23282 10.6078 5.99219 11.2422 4.04688 10.4844ZM11.9375 10.2188L11.8125 10.375L11.8281 12L10.2969 11.4844L10.1094 11.5625C9.23438 11.8875 8.30157 11.9141 7.43751 11.6719L7.43438 11.6703C8.58907 11.3157 9.63594 10.5969 10.3906 9.56253C11.5844 7.91722 11.7781 5.85003 11.0844 4.08753L11.0938 4.09378C11.4531 4.35159 11.7828 4.67347 12.0625 5.06253C13.1969 6.61878 13.1328 8.73753 11.9375 10.2188Z" fill="white"/>
<path d="M5.76562 5.57812C5.40469 5.57812 5.125 5.85781 5.125 6.20312C5.125 6.54844 5.40469 6.82812 5.76562 6.82812C6.09531 6.82812 6.375 6.54844 6.375 6.20312C6.375 5.85781 6.09531 5.57812 5.76562 5.57812Z" fill="white"/>
</svg>
