<svg width="12" height="12" viewBox="0 0 12 12" fill="none" xmlns="http://www.w3.org/2000/svg">
<path d="M9.955 2.045C9.10516 1.19256 8.00327 0.636638 6.81267 0.45963C5.62206 0.282622 4.40611 0.493951 3.34504 1.06229C2.28397 1.63063 1.43427 2.52574 0.92188 3.61492C0.409489 4.70411 0.261682 5.92941 0.500367 7.1092C0.739053 8.28899 1.35153 9.36047 2.24701 10.1648C3.14248 10.9692 4.2733 11.4636 5.47185 11.5748C6.67039 11.686 7.87287 11.408 8.90104 10.7822C9.92921 10.1563 10.7283 9.21574 11.18 8.1H9.626C9.19334 8.86419 8.53203 9.47355 7.73506 9.84237C6.93809 10.2112 6.04556 10.3209 5.18298 10.1561C4.32041 9.99134 3.53119 9.56032 2.92631 8.92368C2.32142 8.28705 1.93131 7.47682 1.81083 6.60695C1.69035 5.73708 1.84556 4.85133 2.25464 4.07426C2.66372 3.29718 3.30608 2.66788 4.0914 2.27486C4.87671 1.88183 5.76546 1.74484 6.63267 1.88317C7.49988 2.02149 8.30192 2.42816 8.926 3.046L6.7 5.3H11.6V0.399997L9.955 2.045Z" fill="white"/>
</svg>
